<svg width="436" height="201" viewBox="0 0 436 201" fill="none" xmlns="http://www.w3.org/2000/svg">
<path d="M29.68 49.86L35.49 29.7L31.29 16.33H27.3V15H49V16.33H44.87L55.3 49.44L63.7 16.33H56.63V15H70.63V16.33H66.01L53.13 64.7H46.9L36.54 33.06L27.44 64.7H21.35L3.71 16.33H0.42V15H23.17V16.33H18.27L29.68 49.86ZM72.4954 15H108.895L109.595 28.86H108.335C106.375 24.1467 104.322 20.9267 102.175 19.2C100.029 17.4267 96.8787 16.54 92.7254 16.54H90.2754V38.17H92.6554C94.8487 38.17 96.6921 37.3533 98.1854 35.72C99.6787 34.04 100.729 31.8 101.335 29H102.385V49.72H101.195C100.355 46.22 99.2121 43.7233 97.7654 42.23C96.3654 40.7367 94.4287 39.99 91.9554 39.99H90.2754V62.46H92.9354C97.2287 62.46 100.869 61.1767 103.855 58.61C106.889 56.0433 108.965 52.7533 110.085 48.74H111.485L110.925 64H72.4954V62.46H76.6254V16.54H72.4954V15ZM116.177 15H137.107C143.594 15 148.447 15.8867 151.667 17.66C154.934 19.3867 156.567 22.3267 156.567 26.48C156.567 32.8733 152.717 36.7 145.017 37.96V38.1C154.35 39.2667 159.017 43.3267 159.017 50.28C159.017 55.3667 157.104 58.9367 153.277 60.99C149.45 62.9967 143.944 64 136.757 64H116.177V62.67H120.727V16.33H116.177V15ZM134.377 39.22V62.67H137.667C140.234 62.67 142.03 61.7833 143.057 60.01C144.084 58.2367 144.597 55.6233 144.597 52.17V48.46C144.597 45.38 143.967 43.07 142.707 41.53C141.447 39.99 139.207 39.22 135.987 39.22H134.377ZM134.377 16.33V37.89H136.197C138.624 37.89 140.304 37.1667 141.237 35.72C142.217 34.2267 142.707 31.9633 142.707 28.93V25.64C142.707 22.1867 142.287 19.7833 141.447 18.43C140.607 17.03 138.997 16.33 136.617 16.33H134.377Z" fill="white"/>
<path d="M4.945 156.5H21.145V157.49H16.375V187.01H17.995C20.545 187.01 22.57 186.23 24.07 184.67C25.6 183.11 27.145 180.71 28.705 177.47H29.65L28.795 188H4.945V187.01H7.6V157.49H4.945V156.5ZM31.7516 156.5H55.1516L55.6016 165.41H54.7916C53.5316 162.38 52.2116 160.31 50.8316 159.2C49.4516 158.06 47.4266 157.49 44.7566 157.49H43.1816V171.395H44.7116C46.1216 171.395 47.3066 170.87 48.2666 169.82C49.2266 168.74 49.9016 167.3 50.2916 165.5H50.9666V178.82H50.2016C49.6616 176.57 48.9266 174.965 47.9966 174.005C47.0966 173.045 45.8516 172.565 44.2616 172.565H43.1816V187.01H44.8916C47.6516 187.01 49.9916 186.185 51.9116 184.535C53.8616 182.885 55.1966 180.77 55.9166 178.19H56.8166L56.4566 188H31.7516V187.01H34.4066V157.49H31.7516V156.5ZM59.8327 156.5H83.2327L83.6827 165.41H82.8727C81.6127 162.38 80.2927 160.31 78.9127 159.2C77.5327 158.06 75.5077 157.49 72.8377 157.49H71.2627V171.395H72.7927C74.2027 171.395 75.3877 170.87 76.3477 169.82C77.3077 168.74 77.9827 167.3 78.3727 165.5H79.0477V178.82H78.2827C77.7427 176.57 77.0077 174.965 76.0777 174.005C75.1777 173.045 73.9327 172.565 72.3427 172.565H71.2627V187.01H72.9727C75.7327 187.01 78.0727 186.185 79.9927 184.535C81.9427 182.885 83.2777 180.77 83.9977 178.19H84.8977L84.5377 188H59.8327V187.01H62.4877V157.49H59.8327V156.5ZM119.715 156.5H131.73V157.355H129.255V187.145H131.73V188H118.005V187.145H120.48V159.02H120.3L113.55 188H107.925L100.005 158.885H99.8247V187.145H102.3V188H96.1797V187.145H98.6547V157.355H96.1797V156.5H108.33L114.315 179.675L119.715 156.5ZM155.393 174.095V170.765C155.393 165.275 155.123 161.81 154.583 160.37C153.983 158.72 153.128 157.7 152.018 157.31C151.388 157.07 150.623 156.95 149.723 156.95C148.823 156.95 148.043 157.07 147.383 157.31C146.753 157.55 146.228 157.97 145.808 158.57C145.388 159.17 145.043 159.8 144.773 160.46C144.533 161.12 144.338 162.05 144.188 163.25C144.008 164.99 143.918 167.555 143.918 170.945V174.185C143.918 177.845 144.053 180.455 144.323 182.015C144.623 183.545 144.983 184.64 145.403 185.3C146.333 186.77 147.773 187.505 149.723 187.505C152.093 187.505 153.623 186.515 154.313 184.535C155.033 182.525 155.393 179.045 155.393 174.095ZM149.633 188.45C144.623 188.45 140.873 187.1 138.383 184.4C135.923 181.67 134.693 177.74 134.693 172.61C134.693 167.45 136.013 163.4 138.653 160.46C141.323 157.49 145.088 156.005 149.948 156.005C154.808 156.005 158.468 157.415 160.928 160.235C163.418 163.025 164.663 167 164.663 172.16C164.663 177.32 163.403 181.325 160.883 184.175C158.393 187.025 154.643 188.45 149.633 188.45ZM189.055 174.095V170.765C189.055 165.275 188.785 161.81 188.245 160.37C187.645 158.72 186.79 157.7 185.68 157.31C185.05 157.07 184.285 156.95 183.385 156.95C182.485 156.95 181.705 157.07 181.045 157.31C180.415 157.55 179.89 157.97 179.47 158.57C179.05 159.17 178.705 159.8 178.435 160.46C178.195 161.12 178 162.05 177.85 163.25C177.67 164.99 177.58 167.555 177.58 170.945V174.185C177.58 177.845 177.715 180.455 177.985 182.015C178.285 183.545 178.645 184.64 179.065 185.3C179.995 186.77 181.435 187.505 183.385 187.505C185.755 187.505 187.285 186.515 187.975 184.535C188.695 182.525 189.055 179.045 189.055 174.095ZM183.295 188.45C178.285 188.45 174.535 187.1 172.045 184.4C169.585 181.67 168.355 177.74 168.355 172.61C168.355 167.45 169.675 163.4 172.315 160.46C174.985 157.49 178.75 156.005 183.61 156.005C188.47 156.005 192.13 157.415 194.59 160.235C197.08 163.025 198.325 167 198.325 172.16C198.325 177.32 197.065 181.325 194.545 184.175C192.055 187.025 188.305 188.45 183.295 188.45ZM226.722 157.355V188H220.422L204.987 158.885V187.145H207.462V188H201.297V187.145H203.772V157.355H201.297V156.5H213.717L225.507 179.09V157.355H223.032V156.5H229.197V157.355H226.722ZM253.029 187.505C254.529 187.505 255.849 187.1 256.989 186.29C258.159 185.48 258.744 184.265 258.744 182.645C258.744 180.995 258.114 179.735 256.854 178.865C255.624 177.995 253.854 177.245 251.544 176.615C249.264 175.955 247.599 175.385 246.549 174.905C245.529 174.425 244.554 173.795 243.624 173.015C241.764 171.455 240.834 169.04 240.834 165.77C240.834 163.1 241.779 160.805 243.669 158.885C245.589 156.965 248.199 156.005 251.499 156.005C253.089 156.005 254.739 156.245 256.449 156.725C258.189 157.175 259.269 157.4 259.689 157.4C260.109 157.4 260.484 157.1 260.814 156.5H261.309L261.624 165.59H260.904C259.464 162.98 257.949 160.895 256.359 159.335C254.799 157.745 253.089 156.95 251.229 156.95C249.399 156.95 247.974 157.385 246.954 158.255C245.934 159.095 245.424 160.235 245.424 161.675C245.424 163.085 246.024 164.18 247.224 164.96C248.454 165.71 249.954 166.325 251.724 166.805C253.494 167.285 254.649 167.615 255.189 167.795C255.759 167.975 256.449 168.23 257.259 168.56C258.099 168.86 258.774 169.19 259.284 169.55C259.824 169.88 260.379 170.315 260.949 170.855C261.549 171.365 262.014 171.935 262.344 172.565C263.154 174.005 263.559 175.715 263.559 177.695C263.559 180.935 262.539 183.545 260.499 185.525C258.489 187.475 255.834 188.45 252.534 188.45C250.824 188.45 248.859 188.225 246.639 187.775C244.449 187.325 243.234 187.1 242.994 187.1C242.574 187.1 242.169 187.55 241.779 188.45H241.149L240.699 177.74H241.464C242.784 180.35 244.464 182.63 246.504 184.58C248.574 186.53 250.749 187.505 253.029 187.505ZM266.332 156.5H289.732L290.182 165.41H289.372C288.112 162.38 286.792 160.31 285.412 159.2C284.032 158.06 282.007 157.49 279.337 157.49H277.762V171.395H279.292C280.702 171.395 281.887 170.87 282.847 169.82C283.807 168.74 284.482 167.3 284.872 165.5H285.547V178.82H284.782C284.242 176.57 283.507 174.965 282.577 174.005C281.677 173.045 280.432 172.565 278.842 172.565H277.762V187.01H279.472C282.232 187.01 284.572 186.185 286.492 184.535C288.442 182.885 289.777 180.77 290.497 178.19H291.397L291.037 188H266.332V187.01H268.987V157.49H266.332V156.5ZM314.87 174.095V170.765C314.87 165.275 314.6 161.81 314.06 160.37C313.46 158.72 312.605 157.7 311.495 157.31C310.865 157.07 310.1 156.95 309.2 156.95C308.3 156.95 307.52 157.07 306.86 157.31C306.23 157.55 305.705 157.97 305.285 158.57C304.865 159.17 304.52 159.8 304.25 160.46C304.01 161.12 303.815 162.05 303.665 163.25C303.485 164.99 303.395 167.555 303.395 170.945V174.185C303.395 177.845 303.53 180.455 303.8 182.015C304.1 183.545 304.46 184.64 304.88 185.3C305.81 186.77 307.25 187.505 309.2 187.505C311.57 187.505 313.1 186.515 313.79 184.535C314.51 182.525 314.87 179.045 314.87 174.095ZM309.11 188.45C304.1 188.45 300.35 187.1 297.86 184.4C295.4 181.67 294.17 177.74 294.17 172.61C294.17 167.45 295.49 163.4 298.13 160.46C300.8 157.49 304.565 156.005 309.425 156.005C314.285 156.005 317.945 157.415 320.405 160.235C322.895 163.025 324.14 167 324.14 172.16C324.14 177.32 322.88 181.325 320.36 184.175C317.87 187.025 314.12 188.45 309.11 188.45ZM326.932 156.5H340.387C344.557 156.5 347.677 157.07 349.747 158.21C351.847 159.32 352.897 161.21 352.897 163.88C352.897 167.99 350.422 170.45 345.472 171.26V171.35C351.472 172.1 354.472 174.71 354.472 179.18C354.472 182.45 353.242 184.745 350.782 186.065C348.322 187.355 344.782 188 340.162 188H326.932V187.145H329.857V157.355H326.932V156.5ZM338.632 172.07V187.145H340.747C342.397 187.145 343.552 186.575 344.212 185.435C344.872 184.295 345.202 182.615 345.202 180.395V178.01C345.202 176.03 344.797 174.545 343.987 173.555C343.177 172.565 341.737 172.07 339.667 172.07H338.632ZM338.632 157.355V171.215H339.802C341.362 171.215 342.442 170.75 343.042 169.82C343.672 168.86 343.987 167.405 343.987 165.455V163.34C343.987 161.12 343.717 159.575 343.177 158.705C342.637 157.805 341.602 157.355 340.072 157.355H338.632Z" fill="white"/>
<path d="M52.98 106.66C52.98 116.273 50.2733 122.97 44.86 126.75C39.8667 130.25 33.0067 132 24.28 132H4.47V130.67H9.09V84.33H4.47V83H26.1C35.06 83 41.78 84.8433 46.26 88.53C50.74 92.17 52.98 98.2133 52.98 106.66ZM22.74 130.67H25.4C30.1133 130.67 33.4733 129.013 35.48 125.7C37.5333 122.34 38.56 116.74 38.56 108.9V104.84C38.56 94.34 36.5533 88.0167 32.54 85.87C30.6267 84.8433 27.92 84.33 24.42 84.33H22.74V130.67ZM57.3118 83H93.7118L94.4118 96.86H93.1518C91.1918 92.1467 89.1385 88.9267 86.9918 87.2C84.8451 85.4267 81.6951 84.54 77.5418 84.54H75.0918V106.17H77.4718C79.6651 106.17 81.5085 105.353 83.0018 103.72C84.4951 102.04 85.5451 99.8 86.1518 97H87.2018V117.72H86.0118C85.1718 114.22 84.0285 111.723 82.5818 110.23C81.1818 108.737 79.2451 107.99 76.7718 107.99H75.0918V130.46H77.7518C82.0451 130.46 85.6851 129.177 88.6718 126.61C91.7051 124.043 93.7818 120.753 94.9018 116.74H96.3018L95.7418 132H57.3118V130.46H61.4418V84.54H57.3118V83ZM126.821 119.33L139.001 84.33H133.541V83H144.251V84.33H140.961L124.091 132.7H118.211L100.361 84.33H97.1407V83H120.031V84.33H115.061L126.821 119.33ZM146.111 83H182.511L183.211 96.86H181.951C179.991 92.1467 177.937 88.9267 175.791 87.2C173.644 85.4267 170.494 84.54 166.341 84.54H163.891V106.17H166.271C168.464 106.17 170.307 105.353 171.801 103.72C173.294 102.04 174.344 99.8 174.951 97H176.001V117.72H174.811C173.971 114.22 172.827 111.723 171.381 110.23C169.981 108.737 168.044 107.99 165.571 107.99H163.891V130.46H166.551C170.844 130.46 174.484 129.177 177.471 126.61C180.504 124.043 182.581 120.753 183.701 116.74H185.101L184.541 132H146.111V130.46H150.241V84.54H146.111V83ZM189.792 83H214.992V84.54H207.572V130.46H210.092C214.059 130.46 217.209 129.247 219.542 126.82C221.922 124.393 224.326 120.66 226.752 115.62H228.222L226.892 132H189.792V130.46H193.922V84.54H189.792V83ZM264.408 110.37V105.19C264.408 96.65 263.988 91.26 263.148 89.02C262.215 86.4533 260.885 84.8667 259.158 84.26C258.178 83.8867 256.988 83.7 255.588 83.7C254.188 83.7 252.975 83.8867 251.948 84.26C250.968 84.6333 250.151 85.2867 249.498 86.22C248.845 87.1533 248.308 88.1333 247.888 89.16C247.515 90.1867 247.211 91.6333 246.978 93.5C246.698 96.2067 246.558 100.197 246.558 105.47V110.51C246.558 116.203 246.768 120.263 247.188 122.69C247.655 125.07 248.215 126.773 248.868 127.8C250.315 130.087 252.555 131.23 255.588 131.23C259.275 131.23 261.655 129.69 262.728 126.61C263.848 123.483 264.408 118.07 264.408 110.37ZM255.448 132.7C247.655 132.7 241.821 130.6 237.948 126.4C234.121 122.153 232.208 116.04 232.208 108.06C232.208 100.033 234.261 93.7333 238.368 89.16C242.521 84.54 248.378 82.23 255.938 82.23C263.498 82.23 269.191 84.4233 273.018 88.81C276.891 93.15 278.828 99.3333 278.828 107.36C278.828 115.387 276.868 121.617 272.948 126.05C269.075 130.483 263.241 132.7 255.448 132.7ZM282.751 83H303.331C310.378 83 315.628 84.0267 319.081 86.08C322.535 88.0867 324.261 91.7033 324.261 96.93C324.261 102.717 322.161 106.707 317.961 108.9C314.041 110.907 308.558 111.91 301.511 111.91H300.951V130.67H309.701V132H282.751V130.67H287.301V84.33H282.751V83ZM300.951 84.33V110.58H302.421C305.221 110.58 307.158 109.623 308.231 107.71C309.305 105.797 309.841 102.693 309.841 98.4V95.04C309.841 91.0733 309.328 88.2967 308.301 86.71C307.321 85.1233 305.501 84.33 302.841 84.33H300.951ZM327.536 83H363.936L364.636 96.86H363.376C361.416 92.1467 359.363 88.9267 357.216 87.2C355.07 85.4267 351.92 84.54 347.766 84.54H345.316V106.17H347.696C349.89 106.17 351.733 105.353 353.226 103.72C354.72 102.04 355.77 99.8 356.376 97H357.426V117.72H356.236C355.396 114.22 354.253 111.723 352.806 110.23C351.406 108.737 349.47 107.99 346.996 107.99H345.316V130.46H347.976C352.27 130.46 355.91 129.177 358.896 126.61C361.93 124.043 364.006 120.753 365.126 116.74H366.526L365.966 132H327.536V130.46H331.666V84.54H327.536V83ZM392.708 107.22H388.998V130.67H393.548V132H370.798V130.67H375.348V84.33H370.798V83H391.938C398.005 83 402.298 83.3267 404.818 83.98C407.385 84.5867 409.181 85.3333 410.208 86.22C412.448 88.04 413.568 90.9333 413.568 94.9C413.568 98.8667 412.588 101.713 410.628 103.44C408.668 105.12 405.681 106.123 401.668 106.45V106.66C405.448 107.173 408.085 108.293 409.578 110.02C411.071 111.747 411.818 114.64 411.818 118.7V122.41C411.818 124.837 411.935 126.47 412.168 127.31C412.448 128.15 413.008 128.57 413.848 128.57C414.688 128.57 415.341 128.197 415.808 127.45C416.321 126.657 416.788 125.023 417.208 122.55L418.398 122.69C417.885 126.657 416.975 129.317 415.668 130.67C414.408 132.023 411.865 132.7 408.038 132.7C404.211 132.7 401.481 131.813 399.848 130.04C398.261 128.22 397.468 124.837 397.468 119.89V114.78C397.468 112.167 397.118 110.253 396.418 109.04C395.765 107.827 394.528 107.22 392.708 107.22ZM388.998 84.33V105.89H391.238C393.898 105.89 395.858 105.073 397.118 103.44C398.425 101.807 399.078 99.1467 399.078 95.46V93.43C399.078 89.7433 398.448 87.3167 397.188 86.15C395.975 84.9367 394.015 84.33 391.308 84.33H388.998Z" fill="white"/>
</svg>
